<svg width="29" height="40" viewBox="0 0 29 40" fill="none" xmlns="http://www.w3.org/2000/svg">
  <path d="M25 0H3.125C2.2962 0 1.50134 0.32924 0.915291 0.915291C0.32924 1.50134 0 2.2962 0 3.125V37.5C0 37.7787 0.07455 38.0524 0.215997 38.2926C0.357444 38.5328 0.560579 38.7307 0.804296 38.8659C1.04801 39.0011 1.32349 39.0686 1.60207 39.0615C1.88065 39.0544 2.15232 38.973 2.38867 38.8262L14.0625 31.5293L25.7363 38.8262C25.9727 38.973 26.2443 39.0544 26.5229 39.0615C26.8015 39.0686 27.077 39.0011 27.3207 38.8659C27.5644 38.7307 27.7676 38.5328 27.909 38.2926C28.0505 38.0524 28.125 37.7787 28.125 37.5V3.125C28.125 2.2962 27.7958 1.50134 27.2097 0.915291C26.6237 0.32924 25.8288 0 25 0Z" fill="#FFFFFF"/>
</svg>
