<svg width="29" height="40" viewBox="0 0 29 40" fill="none" xmlns="http://www.w3.org/2000/svg">
<path d="M25 0H3.125C2.2962 0 1.50134 0.32924 0.915291 0.915291C0.32924 1.50134 0 2.2962 0 3.125V37.5C0.000138745 37.7788 0.0748977 38.0526 0.216519 38.2928C0.358141 38.533 0.561464 38.7309 0.80539 38.866C1.04932 39.0012 1.32496 39.0685 1.60371 39.0612C1.88246 39.0538 2.15416 38.972 2.39062 38.8242L14.0625 31.5293L25.7363 38.8242C25.9728 38.9715 26.2443 39.0529 26.5227 39.06C26.8012 39.0671 27.0765 38.9996 27.3201 38.8646C27.5637 38.7295 27.7668 38.5318 27.9083 38.2919C28.0498 38.0519 28.1246 37.7785 28.125 37.5V3.125C28.125 2.2962 27.7958 1.50134 27.2097 0.915291C26.6237 0.32924 25.8288 0 25 0Z" fill="currentColor"/>
</svg>