<svg width="65" height="65" viewBox="0 0 65 65" fill="none" xmlns="http://www.w3.org/2000/svg">
<path d="M24.0345 22.5495C22.6351 21.1502 20.3668 21.1502 18.9674 22.5495L1.05072 40.4662C-0.348654 41.8656 -0.348654 44.1339 1.05072 45.5333L18.9674 63.4499C20.3668 64.8493 22.6351 64.8493 24.0345 63.4499C25.4338 62.0505 25.4338 59.7822 24.0345 58.3829L8.65131 42.9997L24.0345 27.6166C25.4338 26.2172 25.4338 23.9489 24.0345 22.5495Z" fill="#587BF6"/>
<path d="M64.5 28.6667V3.58333C64.5 1.60431 62.8957 0 60.9167 0C58.9376 0 57.3333 1.60431 57.3333 3.58333V28.6667C57.3333 31.5177 56.1999 34.2512 54.1839 36.2673C52.1679 38.2833 49.4344 39.4167 46.5833 39.4167H3.58333C1.60432 39.4167 1.43051e-06 41.021 1.43051e-06 43C1.43051e-06 44.979 1.60432 46.5833 3.58333 46.5833H46.5833C51.3351 46.5833 55.8909 44.6943 59.251 41.3343C62.611 37.9743 64.5 33.4185 64.5 28.6667Z" fill="#587BF6"/>
</svg>
