<svg width="56" height="38" viewBox="0 0 56 38" fill="none" xmlns="http://www.w3.org/2000/svg">
<path d="M47.0187 8.03999C44.4667 5.48222 41.4336 3.45494 38.0943 2.07505C34.755 0.695158 31.1756 -0.0100436 27.5625 0.000108062H27.4641C12.3219 0.0517878 0 12.5509 0 27.8407V33.4689C0 34.5132 0.414842 35.5147 1.15327 36.2531C1.89169 36.9915 2.89321 37.4064 3.9375 37.4064H51.1875C52.2318 37.4064 53.2333 36.9915 53.9717 36.2531C54.7102 35.5147 55.125 34.5132 55.125 33.4689V27.5626C55.1351 23.9337 54.4237 20.3389 53.032 16.9874C51.6404 13.6359 49.5963 10.5944 47.0187 8.03999ZM51.1875 33.4689H25.5224L38.9985 14.938C39.3059 14.5157 39.433 13.9886 39.3517 13.4726C39.2705 12.9567 38.9876 12.4941 38.5654 12.1867C38.1431 11.8793 37.616 11.7522 37.1 11.8334C36.584 11.9146 36.1214 12.1975 35.814 12.6198L20.6522 33.4689H3.9375V27.8407C3.9375 27.0827 3.97441 26.3346 4.04332 25.5939H9.84375C10.3659 25.5939 10.8667 25.3864 11.2359 25.0172C11.6051 24.648 11.8125 24.1473 11.8125 23.6251C11.8125 23.103 11.6051 22.6022 11.2359 22.233C10.8667 21.8638 10.3659 21.6564 9.84375 21.6564H4.74223C7.28191 12.0932 15.5704 4.86292 25.5938 4.02128V9.84386C25.5938 10.366 25.8012 10.8668 26.1704 11.236C26.5396 11.6052 27.0404 11.8126 27.5625 11.8126C28.0846 11.8126 28.5854 11.6052 28.9546 11.236C29.3238 10.8668 29.5312 10.366 29.5312 9.84386V4.01882C34.4154 4.42985 39.0513 6.3476 42.7984 9.5071C46.5456 12.6666 49.219 16.9119 50.4492 21.6564H45.2812C44.7591 21.6564 44.2583 21.8638 43.8891 22.233C43.5199 22.6022 43.3125 23.103 43.3125 23.6251C43.3125 24.1473 43.5199 24.648 43.8891 25.0172C44.2583 25.3864 44.7591 25.5939 45.2812 25.5939H51.1063C51.158 26.246 51.1875 26.9006 51.1875 27.5626V33.4689Z" fill="black"/>
</svg>
