<svg width="36" height="49" viewBox="0 0 36 49" fill="none" xmlns="http://www.w3.org/2000/svg">
<path d="M2.8406 5.40717C2.6979 5.24631 2.52469 5.11537 2.331 5.02195C2.13732 4.92852 1.92702 4.87447 1.7123 4.86291C1.49757 4.85136 1.28268 4.88254 1.0801 4.95465C0.87751 5.02676 0.691248 5.13836 0.532109 5.28298C0.37297 5.4276 0.244118 5.60237 0.153021 5.79716C0.0619239 5.99195 0.0103931 6.20288 0.00141651 6.41773C-0.00756006 6.63258 0.026196 6.84708 0.100727 7.04879C0.175259 7.25049 0.289083 7.4354 0.435604 7.5928L8.40826 16.3637L0.449823 24.895C0.26505 25.0897 0.131383 25.3271 0.0607638 25.5861C-0.00985501 25.845 -0.0152266 26.1175 0.0451295 26.379C0.105486 26.6405 0.229689 26.8831 0.406644 27.0849C0.583598 27.2867 0.807793 27.4416 1.0592 27.5356L12.7653 31.9251L9.7956 46.8061C9.72817 47.1522 9.77514 47.5108 9.92941 47.8278C10.0837 48.1449 10.3369 48.4032 10.6508 48.5637C10.9647 48.7242 11.3224 48.7783 11.6697 48.7177C12.0171 48.6571 12.3353 48.4852 12.5764 48.228L25.1417 34.7648L32.9356 43.3367C33.0783 43.4976 33.2515 43.6285 33.4452 43.7219C33.6389 43.8154 33.8492 43.8694 34.0639 43.881C34.2786 43.8925 34.4935 43.8613 34.6961 43.7892C34.8987 43.7171 35.085 43.6055 35.2441 43.4609C35.4032 43.3163 35.5321 43.1415 35.6232 42.9467C35.7143 42.7519 35.7658 42.541 35.7748 42.3261C35.7838 42.1113 35.75 41.8968 35.6755 41.6951C35.6009 41.4934 35.4871 41.3085 35.3406 41.1511L2.8406 5.40717ZM14.1039 41.8437L16.2306 31.204C16.3067 30.8267 16.2464 30.4346 16.0604 30.0976C15.8744 29.7605 15.5748 29.5005 15.215 29.3637L4.48185 25.3317L10.6 18.7769L22.9459 32.3578L14.1039 41.8437ZM13.9597 12.7969C13.8036 12.6512 13.6777 12.4763 13.5892 12.282C13.5008 12.0877 13.4514 11.8779 13.4441 11.6646C13.4367 11.4513 13.4715 11.2386 13.5463 11.0386C13.6212 10.8387 13.7347 10.6555 13.8804 10.4995L23.1998 0.513891C23.4409 0.256604 23.7591 0.0847111 24.1065 0.0241509C24.4538 -0.0364094 24.8115 0.0176492 25.1254 0.178169C25.4393 0.338689 25.6925 0.596961 25.8468 0.91401C26.0011 1.23106 26.048 1.58968 25.9806 1.93577L23.0028 16.839L34.7089 21.2286C34.9584 21.3232 35.1808 21.4779 35.3564 21.679C35.532 21.88 35.6553 22.1212 35.7156 22.3812C35.7758 22.6412 35.7711 22.9121 35.7018 23.1698C35.6325 23.4276 35.5008 23.6643 35.3183 23.859L30.7886 28.7117C30.4926 29.018 30.0881 29.1958 29.6623 29.2068C29.2365 29.2179 28.8234 29.0614 28.5119 28.7709C28.2004 28.4804 28.0154 28.0792 27.9967 27.6537C27.978 27.2281 28.1271 26.8123 28.412 26.4956L31.2944 23.4183L20.5694 19.3964C20.2095 19.2596 19.9099 18.9996 19.7239 18.6626C19.5379 18.3255 19.4776 17.9334 19.5537 17.5561L21.6804 6.91639L16.2631 12.7197C16.1173 12.8765 15.9418 13.003 15.7469 13.0918C15.552 13.1807 15.3415 13.2301 15.1274 13.2373C14.9134 13.2444 14.7 13.2092 14.4996 13.1336C14.2992 13.0581 14.1157 12.9436 13.9597 12.7969Z" fill="black"/>
</svg>
