<svg width="23" height="37" viewBox="0 0 23 37" fill="none" xmlns="http://www.w3.org/2000/svg">
<path d="M9.5459 35.5C9.5459 36.3284 10.2175 37 11.0459 37C11.8743 37 12.5459 36.3284 12.5459 35.5L11.0459 35.5L9.5459 35.5ZM12.1066 0.439339C11.5208 -0.146446 10.571 -0.146446 9.98524 0.439339L0.439298 9.98528C-0.146489 10.5711 -0.146489 11.5208 0.439298 12.1066C1.02508 12.6924 1.97483 12.6924 2.56062 12.1066L11.0459 3.62132L19.5312 12.1066C20.117 12.6924 21.0667 12.6924 21.6525 12.1066C22.2383 11.5208 22.2383 10.5711 21.6525 9.98528L12.1066 0.439339ZM11.0459 35.5L12.5459 35.5L12.5459 1.5L11.0459 1.5L9.5459 1.5L9.5459 35.5L11.0459 35.5Z" fill="#587BF6"/>
</svg>
