<svg width="45" height="45" viewBox="0 0 45 45" fill="none" xmlns="http://www.w3.org/2000/svg">
<path d="M40.5 6.75001C40.5 6.15327 40.2628 5.58114 39.8408 5.15919C39.4189 4.73723 38.8467 4.50001 38.25 4.50001H6.75C6.15326 4.50001 5.58114 4.73723 5.15918 5.15919C4.73722 5.58114 4.5 6.15327 4.5 6.75001V37.3184L9.65918 32.1592L9.82397 32.0098C10.2244 31.6817 10.7278 31.5 11.25 31.5H38.25C38.8467 31.5 39.4189 31.2628 39.8408 30.8409C40.2628 30.4189 40.5 29.8468 40.5 29.25V6.75001ZM45 29.25C45 31.0403 44.2883 32.7566 43.0225 34.0225C41.7566 35.2884 40.0402 36 38.25 36H12.1816L3.84082 44.3409C3.19732 44.9844 2.22944 45.1769 1.38867 44.8287C0.548068 44.4803 0 43.66 0 42.7501V6.75001C0 4.9598 0.711668 3.24341 1.97754 1.97754C3.24341 0.711669 4.95979 0 6.75 0H38.25C40.0402 0 41.7566 0.71167 43.0225 1.97754C44.2883 3.24341 45 4.95979 45 6.75001V29.25Z" fill="black"/>
</svg>
