<svg width="50" height="63" viewBox="0 0 50 63" fill="none" xmlns="http://www.w3.org/2000/svg">
<path d="M34.3591 15.56C34.3591 9.83095 29.7148 5.18666 23.9858 5.18666C18.2567 5.18666 13.6124 9.83095 13.6124 15.56C13.6124 21.289 18.2567 25.9333 23.9858 25.9333V31.1199C15.3922 31.1199 8.42578 24.1535 8.42578 15.56C8.42578 6.96644 15.3922 0 23.9858 0C32.5793 0 39.5457 6.96644 39.5457 15.56C39.5457 24.1535 32.5793 31.1199 23.9858 31.1199V25.9333C29.7148 25.9333 34.3591 21.289 34.3591 15.56Z" fill="black"/>
<path d="M23.9693 36.3066C34.4773 36.3068 40.8743 42.2074 44.5209 47.8703C46.3336 50.6855 47.5012 53.4806 48.2159 55.5616C48.5748 56.6066 48.8224 57.485 48.9833 58.1093C49.0636 58.4214 49.1234 58.6714 49.1631 58.8488C49.1828 58.9373 49.198 59.0077 49.2087 59.059C49.214 59.0848 49.2181 59.1065 49.2213 59.1224C49.2229 59.1302 49.2228 59.1372 49.2238 59.1426C49.2244 59.1453 49.226 59.1482 49.2264 59.1502V59.1527C49.217 59.1557 49.066 59.1859 46.6812 59.6466L49.2264 59.1553C49.4978 60.5614 48.5786 61.9202 47.1725 62.1918C45.7679 62.4629 44.4096 61.5466 44.136 60.143V60.1404C44.1351 60.1363 44.1335 60.1278 44.1309 60.1151C44.1253 60.088 44.1146 60.0415 44.1005 59.9784C44.0723 59.8521 44.0268 59.6556 43.9612 59.4009C43.8298 58.8909 43.6191 58.1473 43.3103 57.2483C42.6892 55.4397 41.6864 53.0469 40.1599 50.6763C37.1266 45.9661 32.1644 41.4934 23.9693 41.4933C15.8097 41.4934 11.2062 45.9262 8.51314 50.5725C7.15072 52.9233 6.30613 55.2996 5.80332 57.1014C5.55338 57.9971 5.38987 58.7385 5.29174 59.2465C5.24275 59.5001 5.21035 59.696 5.19044 59.8213C5.18057 59.8835 5.17399 59.929 5.17018 59.9556C5.16888 59.9646 5.16576 59.9712 5.16512 59.9758C4.98217 61.3963 3.68334 62.4026 2.26282 62.2197C0.842495 62.0365 -0.161415 60.7352 0.0215125 59.3148L2.59458 59.6466C0.213211 59.3399 0.0369874 59.3151 0.024045 59.3123V59.3022C0.0247669 59.2967 0.0255109 59.2898 0.0265776 59.2819C0.0287599 59.2659 0.0330142 59.2444 0.0367078 59.2186C0.0441317 59.1668 0.0529739 59.0948 0.0670983 59.0059C0.0954403 58.8275 0.138356 58.5767 0.198791 58.2638C0.319832 57.6372 0.513964 56.7573 0.806602 55.7085C1.38928 53.6203 2.38218 50.807 4.02547 47.9716C7.34434 42.2455 13.4277 36.3067 23.9693 36.3066Z" fill="black"/>
</svg>
