<svg width="46" height="48" viewBox="0 0 46 48" fill="none" xmlns="http://www.w3.org/2000/svg">
<path d="M14.875 19.25C13.6636 19.25 12.4794 19.6092 11.4721 20.2822C10.4649 20.9553 9.67982 21.9119 9.21624 23.0311C8.75265 24.1503 8.63136 25.3818 8.86769 26.5699C9.10402 27.7581 9.68737 28.8494 10.544 29.706C11.4006 30.5626 12.4919 31.146 13.6801 31.3823C14.8682 31.6186 16.0997 31.4973 17.2189 31.0338C18.3381 30.5702 19.2947 29.7851 19.9678 28.7779C20.6408 27.7706 21 26.5864 21 25.375C21 23.7505 20.3547 22.1926 19.206 21.044C18.0574 19.8953 16.4995 19.25 14.875 19.25ZM14.875 28C14.3558 28 13.8483 27.846 13.4166 27.5576C12.9849 27.2692 12.6485 26.8592 12.4498 26.3795C12.2511 25.8999 12.1992 25.3721 12.3004 24.8629C12.4017 24.3537 12.6517 23.886 13.0188 23.5188C13.386 23.1517 13.8537 22.9017 14.3629 22.8004C14.8721 22.6992 15.3999 22.7511 15.8795 22.9498C16.3592 23.1485 16.7692 23.4849 17.0576 23.9166C17.346 24.3483 17.5 24.8558 17.5 25.375C17.5 26.0712 17.2234 26.7389 16.7312 27.2312C16.2389 27.7234 15.5712 28 14.875 28ZM30.625 19.25C29.4136 19.25 28.2294 19.6092 27.2221 20.2822C26.2149 20.9553 25.4298 21.9119 24.9662 23.0311C24.5027 24.1503 24.3814 25.3818 24.6177 26.5699C24.854 27.7581 25.4374 28.8494 26.294 29.706C27.1506 30.5626 28.2419 31.146 29.4301 31.3823C30.6182 31.6186 31.8497 31.4973 32.9689 31.0338C34.0881 30.5702 35.0447 29.7851 35.7178 28.7779C36.3908 27.7706 36.75 26.5864 36.75 25.375C36.75 23.7505 36.1047 22.1926 34.956 21.044C33.8074 19.8953 32.2495 19.25 30.625 19.25ZM30.625 28C30.1058 28 29.5983 27.846 29.1666 27.5576C28.7349 27.2692 28.3985 26.8592 28.1998 26.3795C28.0011 25.8999 27.9492 25.3721 28.0504 24.8629C28.1517 24.3537 28.4017 23.886 28.7688 23.5188C29.136 23.1517 29.6037 22.9017 30.1129 22.8004C30.6221 22.6992 31.1499 22.7511 31.6295 22.9498C32.1092 23.1485 32.5192 23.4849 32.8076 23.9166C33.096 24.3483 33.25 24.8558 33.25 25.375C33.25 26.0712 32.9734 26.7389 32.4812 27.2312C31.9889 27.7234 31.3212 28 30.625 28ZM22.75 0C10.2047 0 0 9.81313 0 21.875C0 29.3344 3.99656 36.3125 10.5 40.3112V43.75C10.5 44.6783 10.8687 45.5685 11.5251 46.2249C12.1815 46.8813 13.0717 47.25 14 47.25H31.5C32.4283 47.25 33.3185 46.8813 33.9749 46.2249C34.6313 45.5685 35 44.6783 35 43.75V40.3112C41.5034 36.3125 45.5 29.3344 45.5 21.875C45.5 9.81313 35.2953 0 22.75 0ZM32.4012 37.7759C32.128 37.9275 31.9003 38.1494 31.7418 38.4187C31.5834 38.6879 31.4998 38.9947 31.5 39.3072V43.75H28V38.5C28 38.0359 27.8156 37.5908 27.4874 37.2626C27.1592 36.9344 26.7141 36.75 26.25 36.75C25.7859 36.75 25.3408 36.9344 25.0126 37.2626C24.6844 37.5908 24.5 38.0359 24.5 38.5V43.75H21V38.5C21 38.0359 20.8156 37.5908 20.4874 37.2626C20.1592 36.9344 19.7141 36.75 19.25 36.75C18.7859 36.75 18.3408 36.9344 18.0126 37.2626C17.6844 37.5908 17.5 38.0359 17.5 38.5V43.75H14V39.3072C14.0002 38.9947 13.9166 38.6879 13.7582 38.4187C13.5997 38.1494 13.372 37.9275 13.0987 37.7759C7.17719 34.4947 3.5 28.4025 3.5 21.875C3.5 11.7425 12.1362 3.5 22.75 3.5C33.3638 3.5 42 11.7425 42 21.875C42 28.4003 38.3228 34.4947 32.4012 37.7759Z" fill="black"/>
</svg>
