<svg width="46" height="46" viewBox="0 0 46 46" fill="none" xmlns="http://www.w3.org/2000/svg">
<path d="M22.75 0C18.2505 0 13.852 1.33426 10.1108 3.83407C6.36957 6.33387 3.45364 9.88693 1.73175 14.044C0.00985722 18.201 -0.440669 22.7752 0.437145 27.1883C1.31496 31.6014 3.48169 35.655 6.66333 38.8367C9.84498 42.0183 13.8986 44.1851 18.3117 45.0629C22.7248 45.9407 27.299 45.4902 31.4561 43.7683C35.6131 42.0464 39.1661 39.1304 41.6659 35.3892C44.1657 31.648 45.5 27.2495 45.5 22.75C45.4936 16.7183 43.0947 10.9354 38.8297 6.67036C34.5646 2.40528 28.7817 0.0063696 22.75 0ZM22.75 42C18.9427 42 15.2209 40.871 12.0553 38.7558C8.88964 36.6406 6.42232 33.6341 4.96533 30.1167C3.50834 26.5992 3.12713 22.7286 3.86989 18.9945C4.61266 15.2604 6.44604 11.8304 9.1382 9.13819C11.8304 6.44603 15.2604 4.61265 18.9945 3.86988C22.7287 3.12712 26.5992 3.50833 30.1167 4.96532C33.6341 6.42231 36.6406 8.88963 38.7558 12.0553C40.871 15.2209 42 18.9427 42 22.75C41.9942 27.8536 39.9642 32.7466 36.3554 36.3554C32.7466 39.9642 27.8537 41.9942 22.75 42ZM36.75 22.75C36.75 23.2141 36.5656 23.6592 36.2374 23.9874C35.9093 24.3156 35.4641 24.5 35 24.5H26.9741L32.7381 30.2619C32.9007 30.4245 33.0297 30.6175 33.1177 30.8299C33.2057 31.0424 33.251 31.2701 33.251 31.5C33.251 31.7299 33.2057 31.9576 33.1177 32.1701C33.0297 32.3825 32.9007 32.5755 32.7381 32.7381C32.5755 32.9007 32.3825 33.0297 32.1701 33.1177C31.9576 33.2057 31.73 33.251 31.5 33.251C31.2701 33.251 31.0424 33.2057 30.8299 33.1177C30.6175 33.0297 30.4245 32.9007 30.2619 32.7381L21.5119 23.9881C21.2669 23.7434 21.1 23.4314 21.0323 23.0918C20.9647 22.7521 20.9994 22.4001 21.1319 22.0801C21.2645 21.7602 21.489 21.4868 21.777 21.2945C22.0651 21.1022 22.4037 20.9997 22.75 21H35C35.4641 21 35.9093 21.1844 36.2374 21.5126C36.5656 21.8408 36.75 22.2859 36.75 22.75Z" fill="black"/>
</svg>
