<svg width="46" height="50" viewBox="0 0 46 50" fill="none" xmlns="http://www.w3.org/2000/svg">
<path d="M43.8438 7.625H34.3125V5.71875C34.3125 4.20204 33.71 2.74746 32.6375 1.67498C31.565 0.60251 30.1105 0 28.5938 0H17.1562C15.6395 0 14.185 0.60251 13.1125 1.67498C12.04 2.74746 11.4375 4.20204 11.4375 5.71875V7.625H1.90625C1.40068 7.625 0.915819 7.82584 0.558328 8.18333C0.200837 8.54082 0 9.02568 0 9.53125C0 10.0368 0.200837 10.5217 0.558328 10.8792C0.915819 11.2367 1.40068 11.4375 1.90625 11.4375H3.8125V45.75C3.8125 46.7611 4.21417 47.7309 4.92916 48.4458C5.64414 49.1608 6.61386 49.5625 7.625 49.5625H38.125C39.1361 49.5625 40.1059 49.1608 40.8208 48.4458C41.5358 47.7309 41.9375 46.7611 41.9375 45.75V11.4375H43.8438C44.3493 11.4375 44.8342 11.2367 45.1917 10.8792C45.5492 10.5217 45.75 10.0368 45.75 9.53125C45.75 9.02568 45.5492 8.54082 45.1917 8.18333C44.8342 7.82584 44.3493 7.625 43.8438 7.625ZM15.25 5.71875C15.25 5.21318 15.4508 4.72832 15.8083 4.37083C16.1658 4.01334 16.6507 3.8125 17.1562 3.8125H28.5938C29.0993 3.8125 29.5842 4.01334 29.9417 4.37083C30.2992 4.72832 30.5 5.21318 30.5 5.71875V7.625H15.25V5.71875ZM38.125 45.75H7.625V11.4375H38.125V45.75ZM19.0625 20.9688V36.2188C19.0625 36.7243 18.8617 37.2092 18.5042 37.5667C18.1467 37.9242 17.6618 38.125 17.1562 38.125C16.6507 38.125 16.1658 37.9242 15.8083 37.5667C15.4508 37.2092 15.25 36.7243 15.25 36.2188V20.9688C15.25 20.4632 15.4508 19.9783 15.8083 19.6208C16.1658 19.2633 16.6507 19.0625 17.1562 19.0625C17.6618 19.0625 18.1467 19.2633 18.5042 19.6208C18.8617 19.9783 19.0625 20.4632 19.0625 20.9688ZM30.5 20.9688V36.2188C30.5 36.7243 30.2992 37.2092 29.9417 37.5667C29.5842 37.9242 29.0993 38.125 28.5938 38.125C28.0882 38.125 27.6033 37.9242 27.2458 37.5667C26.8883 37.2092 26.6875 36.7243 26.6875 36.2188V20.9688C26.6875 20.4632 26.8883 19.9783 27.2458 19.6208C27.6033 19.2633 28.0882 19.0625 28.5938 19.0625C29.0993 19.0625 29.5842 19.2633 29.9417 19.6208C30.2992 19.9783 30.5 20.4632 30.5 20.9688Z" fill="black"/>
</svg>
