<svg width="128" height="12" viewBox="0 0 128 12" fill="none" xmlns="http://www.w3.org/2000/svg">
<path d="M128 3.63947C127.073 3.7744 126.19 4.02351 125.302 4.01313C116.224 3.89896 107.147 3.45263 98.0809 3.67579C87.3165 3.94046 76.5633 4.64626 65.8212 5.40394C57.4588 5.99556 49.1076 6.8311 40.7788 7.77561C30.8132 8.90695 20.8811 10.3081 10.9211 11.5173C8.28447 11.8391 5.60873 11.9896 2.95534 12C0.514213 12.0103 -0.737072 10.1421 0.458352 8.48139C0.743243 8.08179 1.39681 7.71852 1.90515 7.677C8.41294 7.18399 14.9375 6.87779 21.4285 6.2758C28.4167 5.62709 35.3714 4.67221 42.3484 3.91452C49.5266 3.13608 56.6935 2.23828 63.894 1.74526C74.8986 0.992766 85.92 0.297346 96.9469 0.0482439C105.941 -0.154152 114.951 0.33368 123.95 0.525697C125.983 0.567214 127.525 1.24186 127.983 3.63428L128 3.63947Z" fill="#587BF6"/>
</svg>
